<?xml version="1.0" standalone="no"?>
<!DOCTYPE svg PUBLIC "-//W3C//DTD SVG 20010904//EN"
 "http://www.w3.org/TR/2001/REC-SVG-20010904/DTD/svg10.dtd">
<svg version="1.0" xmlns="http://www.w3.org/2000/svg"
 width="700.000000pt" height="700.000000pt" viewBox="0 0 700.000000 700.000000"
 preserveAspectRatio="xMidYMid meet">
<metadata>
Created by potrace 1.14, written by Peter Selinger 2001-2017
</metadata>
<g transform="translate(0.000000,700.000000) scale(0.100000,-0.100000)"
fill="#000000" stroke="none">
<path d="M3330 6989 c-753 -32 -1486 -319 -2075 -814 -566 -474 -968 -1118
-1149 -1840 -112 -448 -129 -985 -45 -1455 87 -492 298 -994 589 -1400 497
-695 1221 -1184 2040 -1379 279 -66 504 -92 810 -92 464 0 858 74 1275 238
905 357 1621 1073 1978 1978 164 417 238 810 238 1275 0 465 -74 858 -238
1275 -357 905 -1073 1621 -1978 1978 -462 182 -924 257 -1445 236z m645 -198
c455 -71 862 -217 1249 -449 417 -250 808 -631 1069 -1039 l47 -73 -788 -1
c-433 -1 -1153 -5 -1601 -8 l-815 -6 -103 -255 c-638 -1564 -917 -2246 -922
-2252 -5 -6 -242 569 -809 1967 -118 292 -219 534 -223 539 -4 5 -105 -30
-226 -79 -120 -48 -240 -96 -267 -106 l-48 -20 47 88 c496 917 1433 1560 2475
1697 180 24 179 24 485 21 237 -2 316 -7 430 -24z m2618 -2077 c96 -241 161
-490 204 -779 26 -173 26 -697 0 -870 -112 -754 -431 -1399 -947 -1915 -516
-516 -1161 -835 -1915 -947 -173 -26 -697 -26 -870 0 -754 112 -1399 431
-1915 947 -516 516 -835 1161 -947 1915 -26 173 -26 697 0 870 24 162 61 338
97 465 35 125 111 340 120 340 4 0 46 -96 94 -212 124 -299 1076 -2628 1356
-3316 128 -314 235 -572 239 -572 3 0 75 172 160 383 125 310 789 1943 1286
3162 54 132 103 246 108 253 7 9 93 12 368 12 l359 0 2 -1392 3 -1393 388 -3
387 -2 0 1390 0 1390 625 0 625 0 1 323 0 322 58 -115 c32 -63 84 -178 114
-256z"/>
</g>
</svg>
